<svg width="54" height="37" viewBox="0 0 54 37" fill="none" xmlns="http://www.w3.org/2000/svg">
<path fill-rule="evenodd" clip-rule="evenodd" d="M51.2766 37.0002H36.053C35.3468 37.0002 34.6916 36.6251 34.3348 36.0074L31.5537 31.2197L20.0214 11.3775L8.48908 31.2123H17.6916C21.8051 31.2123 25.6128 33.4113 27.695 36.9929H5.13277H1.99488C0.458693 36.9929 -0.502333 35.3013 0.27668 33.9628L18.3032 2.95668C19.0749 1.63289 20.9679 1.63289 21.7396 2.95668L23.3267 5.69252L38.1644 31.2197H44.7751L33.2428 11.3848C31.2042 7.86942 31.2042 3.51562 33.2428 0.00756836L52.9875 33.9776C53.7665 35.3161 52.8127 37.0076 51.2693 37.0076L51.2766 37.0002Z" fill="url(#paint0_linear_1_30)"/>
<defs>
<linearGradient id="paint0_linear_1_30" x1="2.13512e-05" y1="18.5039" x2="53.2714" y2="18.5039" gradientUnits="userSpaceOnUse">
<stop stop-color="#003BFF"/>
<stop offset="0.51" stop-color="#007AE8"/>
<stop offset="1" stop-color="#00B3D4"/>
</linearGradient>
</defs>
</svg>
