<svg width="184" height="37" viewBox="0 0 184 37" fill="none" xmlns="http://www.w3.org/2000/svg">
<g clip-path="url(#clip0_1_11)">
<path d="M98.3013 4.67002C98.0537 4.00076 97.646 3.3977 97.0854 2.83877C96.0953 1.84592 94.7338 1.34583 93.001 1.34583H78.5347C78.5347 3.19913 80.0272 4.70679 81.8619 4.70679H83.7839H91.9381C91.9818 4.70679 92.0327 4.70679 92.0764 4.70679C92.7535 4.72885 93.3214 4.898 93.7582 5.29514C94.2242 5.68492 94.4644 6.24386 94.4644 6.94253V10.7742C94.4644 11.4581 94.2242 12.0024 93.7437 12.4142C93.285 12.8187 92.688 13.0246 91.9381 13.0393H82.6409V10.9727V10.6565V7.29554H78.5201V10.9727V16.4518H92.9865C94.6901 16.4518 96.0516 15.9517 97.0709 14.9294C98.0756 13.9292 98.5779 12.7672 98.5779 11.4655V6.33946C98.5779 5.74376 98.4833 5.19218 98.2867 4.67002H98.3013Z" fill="white"/>
<path d="M116.881 13.032C116.837 13.032 116.801 13.032 116.757 13.0394H108.88C108.152 13.0246 107.555 12.8261 107.082 12.4142C106.616 12.0024 106.375 11.4582 106.375 10.7742V8.61201V7.07493C106.375 7.07493 106.412 4.72153 108.953 4.69946H117.194C119.298 4.69946 121.177 3.35361 121.868 1.3385H108.297C103.252 1.3385 102.24 4.74359 102.24 7.05287V11.4067C102.24 12.7305 102.735 13.8925 103.747 14.9147C104.788 15.9296 106.135 16.4297 107.817 16.4297H117.726C119.073 16.4077 120.223 15.9738 121.162 15.128C121.846 14.5176 122.283 13.8116 122.465 13.0099H116.867L116.881 13.032Z" fill="white"/>
<path d="M113.365 7.48676H118.468H119.568C121.242 7.48676 122.596 8.85467 122.596 10.5388H117.536C115.636 10.5388 113.954 9.31065 113.365 7.48676Z" fill="white"/>
<path d="M129.622 10.3771H136.735C138.657 10.3771 140.361 9.14152 140.972 7.30292H125.508V16.4444H141.191L142.312 13.0835H129.615V10.3771H129.622Z" fill="white"/>
<path d="M141.577 4.70679L142.698 1.34583H125.516C125.516 3.19913 127.001 4.70679 128.836 4.70679H141.569H141.577Z" fill="white"/>
<path d="M62.9763 10.3771H70.0893C72.0114 10.3771 73.715 9.14152 74.3266 7.30292H58.8628V16.4444H74.545L75.6662 13.0835H62.969V10.3771H62.9763Z" fill="white"/>
<path d="M74.9236 4.70703L76.0448 1.34607H58.8628C58.8628 3.19938 60.348 4.70703 62.1827 4.70703H74.9163H74.9236Z" fill="white"/>
<path d="M126.484 21.9014V37H122.371V21.9014H126.484Z" fill="white"/>
<path d="M184 33.5876L182.842 37H167.633V21.9014H171.761V33.5949H184.007L184 33.5876Z" fill="white"/>
<path d="M63.7044 32.9698C63.2384 32.5579 62.9982 32.0137 62.9982 31.3297V29.9177V29.1675V27.6305C62.9982 27.6305 63.0346 25.2844 65.5609 25.2624H72.2444C74.3485 25.2624 76.2195 23.9091 76.9039 21.894H67.9489C67.847 21.894 67.7596 21.9088 67.6722 21.9161V21.894H64.9275C59.8821 21.894 58.8701 25.2991 58.8701 27.6084V27.8438V29.6676V30.3884V31.9622C58.8701 33.286 59.3725 34.448 60.3845 35.4629C61.4256 36.4852 62.7725 36.9853 64.4615 36.9853H71.1232C73.2418 36.9853 75.1275 35.61 75.79 33.5728H65.5172C64.7892 33.5581 64.1922 33.3522 63.7116 32.9477L63.7044 32.9698Z" fill="white"/>
<path d="M94.1878 37H98.9565L89.936 21.9014H85.3711L76.3506 37H81.0611L82.6555 34.2789H85.0144C86.8491 34.2789 88.3343 32.7712 88.3343 30.9179H84.6212L87.599 25.8213L94.1951 37H94.1878Z" fill="white"/>
<path d="M161.074 37H165.842L156.822 21.9014H152.257L143.237 37H147.947L149.541 34.2789H151.9C153.735 34.2789 155.22 32.7712 155.22 30.9179H151.507L154.485 25.8213L161.081 37H161.074Z" fill="white"/>
<path d="M147.386 21.894H132.578C130.736 21.894 129.243 23.3943 129.236 25.255H135.956V36.9926H140.077V25.255H144.052C145.894 25.255 147.386 23.7547 147.394 21.894H147.386Z" fill="white"/>
<path d="M113.765 21.9014H100.733C100.733 23.7547 102.218 25.2624 104.053 25.2624H104.876H113.437C113.947 25.2624 114.974 25.2992 114.974 26.5715C114.974 27.8438 113.998 27.8438 113.372 27.8438H104.883H100.726V37.0074H104.846V31.1974H113.765C115.745 31.1974 119.153 31.1533 119.153 26.4464C119.153 22.5118 115.869 21.9088 113.765 21.9088V21.9014Z" fill="white"/>
<path fill-rule="evenodd" clip-rule="evenodd" d="M51.2766 37.0002H36.053C35.3468 37.0002 34.6916 36.6251 34.3348 36.0074L31.5537 31.2197L20.0214 11.3775L8.48908 31.2123H17.6916C21.8051 31.2123 25.6128 33.4113 27.695 36.9929H5.13277H1.99488C0.458693 36.9929 -0.502333 35.3013 0.27668 33.9628L18.3032 2.95668C19.0749 1.63289 20.9679 1.63289 21.7396 2.95668L23.3267 5.69252L38.1644 31.2197H44.7751L33.2428 11.3848C31.2042 7.86942 31.2042 3.51562 33.2428 0.00756836L52.9875 33.9776C53.7665 35.3161 52.8127 37.0076 51.2693 37.0076L51.2766 37.0002Z" fill="url(#paint0_linear_1_11)"/>
</g>
<defs>
<linearGradient id="paint0_linear_1_11" x1="2.13512e-05" y1="18.5039" x2="53.2714" y2="18.5039" gradientUnits="userSpaceOnUse">
<stop stop-color="#003BFF"/>
<stop offset="0.51" stop-color="#007AE8"/>
<stop offset="1" stop-color="#00B3D4"/>
</linearGradient>
<clipPath id="clip0_1_11">
<rect width="184" height="37" fill="white"/>
</clipPath>
</defs>
</svg>
